<svg xmlns="http://www.w3.org/2000/svg" viewBox="0 0 32 32">
  <defs>
    <style>
      .icon-bg { fill: #217346; }
      .icon-table { fill: #ffffff; stroke: #217346; stroke-width: 0.5; }
      .icon-arrow { fill: #ffffff; }
    </style>
  </defs>
  
  <!-- 背景圆形 -->
  <circle cx="16" cy="16" r="16" class="icon-bg"/>
  
  <!-- 左侧宽表格（输入） -->
  <g transform="translate(4,8)">
    <rect x="0" y="0" width="8" height="2" class="icon-table"/>
    <rect x="0" y="2" width="2" height="2" class="icon-table"/>
    <rect x="2" y="2" width="2" height="2" class="icon-table"/>
    <rect x="4" y="2" width="2" height="2" class="icon-table"/>
    <rect x="6" y="2" width="2" height="2" class="icon-table"/>
  </g>
  
  <!-- 转换箭头 -->
  <g transform="translate(14,13)">
    <polygon points="0,3 4,1 4,2.5 8,2.5 8,3.5 4,3.5 4,5" class="icon-arrow"/>
  </g>
  
  <!-- 右侧长表格（输出） -->
  <g transform="translate(24,6)">
    <rect x="0" y="0" width="4" height="2" class="icon-table"/>
    <rect x="0" y="2" width="4" height="2" class="icon-table"/>
    <rect x="0" y="4" width="4" height="2" class="icon-table"/>
    <rect x="0" y="6" width="4" height="2" class="icon-table"/>
    <rect x="0" y="8" width="4" height="2" class="icon-table"/>
  </g>
</svg> 